<svg id="visual" viewBox="0 0 3840 2160" width="3840" height="2160" xmlns="http://www.w3.org/2000/svg" xmlns:xlink="http://www.w3.org/1999/xlink" version="1.1"><rect x="0" y="0" width="3840" height="2160" fill="#0F172A"></rect><defs><linearGradient id="grad1_0" x1="43.8%" y1="0%" x2="100%" y2="100%"><stop offset="14.444444444444446%" stop-color="#802f65" stop-opacity="1"></stop><stop offset="85.55555555555554%" stop-color="#802f65" stop-opacity="1"></stop></linearGradient></defs><defs><linearGradient id="grad1_1" x1="43.8%" y1="0%" x2="100%" y2="100%"><stop offset="14.444444444444446%" stop-color="#802f65" stop-opacity="1"></stop><stop offset="85.55555555555554%" stop-color="#692e61" stop-opacity="1"></stop></linearGradient></defs><defs><linearGradient id="grad1_2" x1="43.8%" y1="0%" x2="100%" y2="100%"><stop offset="14.444444444444446%" stop-color="#522b5b" stop-opacity="1"></stop><stop offset="85.55555555555554%" stop-color="#692e61" stop-opacity="1"></stop></linearGradient></defs><defs><linearGradient id="grad1_3" x1="43.8%" y1="0%" x2="100%" y2="100%"><stop offset="14.444444444444446%" stop-color="#522b5b" stop-opacity="1"></stop><stop offset="85.55555555555554%" stop-color="#3e2851" stop-opacity="1"></stop></linearGradient></defs><defs><linearGradient id="grad1_4" x1="43.8%" y1="0%" x2="100%" y2="100%"><stop offset="14.444444444444446%" stop-color="#2b2346" stop-opacity="1"></stop><stop offset="85.55555555555554%" stop-color="#3e2851" stop-opacity="1"></stop></linearGradient></defs><defs><linearGradient id="grad1_5" x1="43.8%" y1="0%" x2="100%" y2="100%"><stop offset="14.444444444444446%" stop-color="#2b2346" stop-opacity="1"></stop><stop offset="85.55555555555554%" stop-color="#1b1e38" stop-opacity="1"></stop></linearGradient></defs><defs><linearGradient id="grad1_6" x1="43.8%" y1="0%" x2="100%" y2="100%"><stop offset="14.444444444444446%" stop-color="#0f172a" stop-opacity="1"></stop><stop offset="85.55555555555554%" stop-color="#1b1e38" stop-opacity="1"></stop></linearGradient></defs><defs><linearGradient id="grad2_0" x1="0%" y1="0%" x2="56.3%" y2="100%"><stop offset="14.444444444444446%" stop-color="#802f65" stop-opacity="1"></stop><stop offset="85.55555555555554%" stop-color="#802f65" stop-opacity="1"></stop></linearGradient></defs><defs><linearGradient id="grad2_1" x1="0%" y1="0%" x2="56.3%" y2="100%"><stop offset="14.444444444444446%" stop-color="#692e61" stop-opacity="1"></stop><stop offset="85.55555555555554%" stop-color="#802f65" stop-opacity="1"></stop></linearGradient></defs><defs><linearGradient id="grad2_2" x1="0%" y1="0%" x2="56.3%" y2="100%"><stop offset="14.444444444444446%" stop-color="#692e61" stop-opacity="1"></stop><stop offset="85.55555555555554%" stop-color="#522b5b" stop-opacity="1"></stop></linearGradient></defs><defs><linearGradient id="grad2_3" x1="0%" y1="0%" x2="56.3%" y2="100%"><stop offset="14.444444444444446%" stop-color="#3e2851" stop-opacity="1"></stop><stop offset="85.55555555555554%" stop-color="#522b5b" stop-opacity="1"></stop></linearGradient></defs><defs><linearGradient id="grad2_4" x1="0%" y1="0%" x2="56.3%" y2="100%"><stop offset="14.444444444444446%" stop-color="#3e2851" stop-opacity="1"></stop><stop offset="85.55555555555554%" stop-color="#2b2346" stop-opacity="1"></stop></linearGradient></defs><defs><linearGradient id="grad2_5" x1="0%" y1="0%" x2="56.3%" y2="100%"><stop offset="14.444444444444446%" stop-color="#1b1e38" stop-opacity="1"></stop><stop offset="85.55555555555554%" stop-color="#2b2346" stop-opacity="1"></stop></linearGradient></defs><defs><linearGradient id="grad2_6" x1="0%" y1="0%" x2="56.3%" y2="100%"><stop offset="14.444444444444446%" stop-color="#1b1e38" stop-opacity="1"></stop><stop offset="85.55555555555554%" stop-color="#0f172a" stop-opacity="1"></stop></linearGradient></defs><g transform="translate(3840, 0)"><path d="M0 1836C-240.9 1801.8 -481.8 1767.6 -693.4 1674.1C-905 1580.6 -1087.3 1427.8 -1261.5 1261.5C-1435.7 1095.1 -1601.8 915.1 -1696.2 702.6C-1790.7 490.1 -1813.3 245 -1836 0L0 0Z" fill="#141a31"></path><path d="M0 1573.7C-206.5 1544.4 -413 1515 -594.4 1434.9C-775.7 1354.8 -931.9 1223.9 -1081.3 1081.3C-1230.6 938.7 -1373 784.4 -1453.9 602.2C-1534.8 420.1 -1554.3 210 -1573.7 0L0 0Z" fill="#22213f"></path><path d="M0 1311.4C-172.1 1287 -344.2 1262.5 -495.3 1195.8C-646.4 1129 -776.6 1019.9 -901.1 901.1C-1025.5 782.2 -1144.2 653.7 -1211.6 501.9C-1279 350.1 -1295.2 175 -1311.4 0L0 0Z" fill="#34264c"></path><path d="M0 1049.1C-137.7 1029.6 -275.3 1010 -396.2 956.6C-517.1 903.2 -621.3 815.9 -720.8 720.8C-820.4 625.8 -915.3 522.9 -969.3 401.5C-1023.2 280.1 -1036.2 140 -1049.1 0L0 0Z" fill="#482a56"></path><path d="M0 786.9C-103.2 772.2 -206.5 757.5 -297.2 717.5C-387.9 677.4 -466 611.9 -540.6 540.6C-615.3 469.3 -686.5 392.2 -727 301.1C-767.4 210 -777.1 105 -786.9 0L0 0Z" fill="#5e2d5e"></path><path d="M0 524.6C-68.8 514.8 -137.7 505 -198.1 478.3C-258.6 451.6 -310.6 408 -360.4 360.4C-410.2 312.9 -457.7 261.5 -484.6 200.7C-511.6 140 -518.1 70 -524.6 0L0 0Z" fill="#742e64"></path><path d="M0 262.3C-34.4 257.4 -68.8 252.5 -99.1 239.2C-129.3 225.8 -155.3 204 -180.2 180.2C-205.1 156.4 -228.8 130.7 -242.3 100.4C-255.8 70 -259 35 -262.3 0L0 0Z" fill="#802f65"></path></g><g transform="translate(0, 2160)"><path d="M0 -1836C236.2 -1792.4 472.4 -1748.9 687.3 -1659.3C902.2 -1569.7 1095.6 -1434 1271.4 -1271.4C1447.1 -1108.7 1605.1 -919 1696.2 -702.6C1787.4 -486.2 1811.7 -243.1 1836 0L0 0Z" fill="#141a31"></path><path d="M0 -1573.7C202.5 -1536.4 405 -1499 589.1 -1422.2C773.3 -1345.4 939.1 -1229.2 1089.8 -1089.8C1240.4 -950.3 1375.8 -787.7 1453.9 -602.2C1532 -416.7 1552.9 -208.4 1573.7 0L0 0Z" fill="#22213f"></path><path d="M0 -1311.4C168.7 -1280.3 337.5 -1249.2 490.9 -1185.2C644.4 -1121.2 782.6 -1024.3 908.1 -908.1C1033.7 -791.9 1146.5 -656.4 1211.6 -501.9C1276.7 -347.3 1294.1 -173.6 1311.4 0L0 0Z" fill="#34264c"></path><path d="M0 -1049.1C135 -1024.3 270 -999.4 392.7 -948.2C515.5 -897 626.1 -819.5 726.5 -726.5C826.9 -633.5 917.2 -525.1 969.3 -401.5C1021.4 -277.8 1035.3 -138.9 1049.1 0L0 0Z" fill="#482a56"></path><path d="M0 -786.9C101.2 -768.2 202.5 -749.5 294.6 -711.1C386.6 -672.7 469.6 -614.6 544.9 -544.9C620.2 -475.2 687.9 -393.9 727 -301.1C766 -208.4 776.4 -104.2 786.9 0L0 0Z" fill="#5e2d5e"></path><path d="M0 -524.6C67.5 -512.1 135 -499.7 196.4 -474.1C257.8 -448.5 313 -409.7 363.3 -363.3C413.5 -316.8 458.6 -262.6 484.6 -200.7C510.7 -138.9 517.6 -69.5 524.6 0L0 0Z" fill="#742e64"></path><path d="M0 -262.3C33.7 -256.1 67.5 -249.8 98.2 -237C128.9 -224.2 156.5 -204.9 181.6 -181.6C206.7 -158.4 229.3 -131.3 242.3 -100.4C255.3 -69.5 258.8 -34.7 262.3 0L0 0Z" fill="#802f65"></path></g></svg>